<?xml version="1.0" encoding="utf-8"?>
<!-- Generator: Adobe Illustrator 22.1.0, SVG Export Plug-In . SVG Version: 6.00 Build 0)  -->
<svg version="1.1" id="Isolation_Mode" xmlns="http://www.w3.org/2000/svg" xmlns:xlink="http://www.w3.org/1999/xlink" x="0px"
	 y="0px" viewBox="0 0 274.5 102" style="enable-background:new 0 0 274.5 102;" xml:space="preserve">
<style type="text/css">
	.st0{fill:#FFFFFF;}
</style>
<path class="st0" d="M87.6,46.5L87.6,46.5c0.1,0.1,0.1,0.1,0.1,0.1c0,0,0,0,0,0.1l0,0.2c0,0.4-0.1,0.6-0.3,0.8l-0.1,0
	C87.2,47.9,87,48,86.7,48c-0.2,0-0.3,0-0.4-0.1c0,0-0.1-0.1-0.1-0.1c-0.3-0.1-0.4-0.3-0.5-0.4c-0.2-0.3-0.3-0.5-0.3-0.8
	c0-0.1,0-0.2,0.1-0.3c-0.8,0.8-1.6,1.5-2.5,2.3c-0.9,0.8-1.7,1.6-2.5,2.4c-0.8,0.8-1.7,1.5-2.5,2.2c-0.8,0.7-1.5,1.3-2.2,1.9
	c-2.2,1.6-3.8,2.4-4.8,2.4l-0.1,0c-0.6,0-1.1-0.3-1.4-0.7c-0.3-0.4-0.4-0.9-0.4-1.6c0-0.6,0.1-1.2,0.3-1.8c0.3-0.9,0.7-1.9,1.2-2.9
	c0.5-1.1,1.2-2.2,1.9-3.2c0.6-0.9,1.3-1.7,2-2.5c0.7-0.8,1.5-1.5,2.2-2.1c0.8-0.6,1.6-1.1,2.4-1.4c0.8-0.4,1.6-0.5,2.4-0.5
	c0.3,0,0.5,0,0.8,0.1c0.3,0,0.5,0.1,0.8,0.2c0.9,0.4,1.8,1.1,2.6,2c0.1,0.1,0.1,0.1,0.2,0.2c0.1,0.1,0.1,0.2,0.2,0.3
	c0.5-0.5,1-1,1.5-1.4c0.4-0.4,0.9-0.8,1.2-1.1c0.8-0.8,1.5-1.2,1.9-1.2c0.2,0,0.4,0.1,0.7,0.3c0.1,0.2,0.2,0.4,0.2,0.7
	c0,0.3,0,0.6,0,1c0,0.2,0,0.4,0,0.7c0,0.2,0,0.5,0,0.8c0,1,0,2,0,3c0,1,0,1.9,0,2.9c1.9-1.3,3.8-2.4,5.6-3.3c1.9-1,3.6-1.8,5.3-2.5
	c0.1-0.1,0.3-0.1,0.4-0.1c0.3,0,0.6,0.2,0.7,0.5c0,0.1,0.1,0.2,0,0.3c0,0.3-0.2,0.6-0.5,0.8c-1.8,0.8-3.8,1.7-5.7,2.7
	c-2,1-4,2.3-6,3.6c-0.2,4.8-0.7,9.1-1.4,13c-0.7,3.9-1.7,7.3-2.8,10.3c-1.1,3-2.4,5.6-3.8,7.7c-1.4,2.1-2.8,3.9-4.2,5.2
	c-1.4,1.3-2.7,2.2-4.1,2.8c-1.3,0.6-2.6,0.9-3.8,0.9l-0.5,0c-1.3-0.1-2.4-0.5-3.3-1.3c-0.9-0.8-1.5-1.9-1.9-3.4
	c-0.2-0.8-0.3-1.7-0.3-2.7c0-2.1,0.6-4.5,1.6-7.2c1.1-2.8,2.8-5.9,5.3-9.4c1.8-2.6,3.9-5,6.1-7.2c2.2-2.2,4.5-4.3,6.9-6.1
	c0.7-0.6,1.5-1.2,2.2-1.7c0.7-0.5,1.5-1.1,2.2-1.6c0-1.1,0-2.2,0.1-3.4c0-1.2,0-2.3,0-3.5c0-0.3,0-0.6,0-0.8c0-0.2,0-0.5,0-0.7
	l-0.1,0.2c-0.4,0.3-0.8,0.7-1.3,1.2c-0.5,0.5-1,1-1.5,1.5c0.1,0.2,0.3,0.5,0.4,0.7C87.4,45.9,87.5,46.2,87.6,46.5L87.6,46.5z
	 M78.1,86.4c1.3-1.3,2.7-2.9,3.9-4.9c1.3-2,2.5-4.4,3.5-7.2c1.1-2.8,2-6,2.7-9.6c0.7-3.6,1.2-7.7,1.5-12.2c-0.6,0.4-1.1,0.8-1.7,1.2
	c-0.6,0.4-1.1,0.8-1.7,1.3c-2.3,1.8-4.6,3.8-6.7,6c-2.1,2.2-4.1,4.5-5.9,7c-2.4,3.3-4.1,6.3-5.1,9c-1,2.6-1.5,4.9-1.6,6.8
	c0,0.8,0.1,1.5,0.2,2.3c0.3,1.1,0.7,1.9,1.4,2.5c0.6,0.6,1.4,0.9,2.3,1l0.4,0c1,0,2-0.2,3.1-0.7C75.7,88.4,76.9,87.5,78.1,86.4z
	 M84.7,44.8c-0.1-0.1-0.1-0.3-0.2-0.3c-0.1-0.1-0.1-0.2-0.2-0.3c-0.6-0.7-1.3-1.2-1.9-1.5c-0.2-0.1-0.4-0.1-0.5-0.2
	c-0.2,0-0.4-0.1-0.5-0.1c-0.6,0-1.3,0.1-1.9,0.5c-0.6,0.3-1.3,0.7-1.9,1.3c-0.7,0.5-1.3,1.2-1.9,1.9c-0.6,0.7-1.2,1.5-1.7,2.2
	c-0.7,1-1.3,2-1.8,3c-0.5,1-0.9,1.9-1.1,2.7c-0.1,0.3-0.1,0.5-0.2,0.8c0,0.2-0.1,0.4-0.1,0.6c0,0.4,0.1,0.6,0.2,0.6
	c0.3,0,0.8-0.2,1.4-0.5c0.6-0.3,1.4-0.9,2.4-1.6c0.7-0.5,1.5-1.2,2.3-1.9c0.8-0.7,1.7-1.5,2.6-2.3c0.9-0.8,1.8-1.6,2.6-2.5
	C83.1,46.4,84,45.5,84.7,44.8z M127.3,22.1c0.2-0.3,0.4-0.4,0.7-0.4c0.1,0,0.3,0.1,0.4,0.2c0.3,0.2,0.4,0.4,0.4,0.7
	c0,0.1-0.1,0.3-0.2,0.4c-0.8,1.3-1.6,2.6-2.4,4c-2.1,3.8-3.8,7.7-5,11.7c-1.2,4-2.1,7.9-2.7,11.7c0,0.3-0.1,0.6-0.1,0.8
	c0,0.3-0.1,0.5-0.1,0.8c2.4-1.4,5.2-2.7,8.2-4c3.1-1.3,6.5-2.3,10.4-3.1l0.1,0c0.4,0,0.7,0.2,0.8,0.6l0,0.1c0,0.5-0.2,0.8-0.6,0.9
	c-4,0.8-7.6,1.9-10.8,3.2c-3.2,1.3-6,2.8-8.4,4.3c-0.2,1.4-0.3,2.7-0.4,4c-0.1,1.3-0.2,2.6-0.2,3.8c0,0.4,0,0.8,0,1.2
	c0,0.4,0,0.8,0,1.2c0.6,0.6,1.2,1.5,1.7,2.5c0.6,1,1.1,2.3,1.6,3.8c0.5,1.5,0.8,2.9,1.1,4.4c0.2,1.5,0.3,2.8,0.3,4
	c0,0.3,0,0.6,0,0.9c0,0.3-0.1,0.6-0.1,0.8c0,0.7-0.2,1.3-0.5,1.7l0,0.1c-0.3,0.5-0.7,0.8-1.3,0.7l-0.3,0c-0.5-0.1-1-0.5-1.5-1.3
	l-0.1,0c-0.2-0.3-0.5-0.9-0.7-1.9c-0.3-0.9-0.5-2.1-0.7-3.6c-0.2-1.5-0.4-3.1-0.6-5.1c-0.2-1.9-0.3-4-0.3-6.3
	c-0.6-0.6-1.2-0.9-1.8-1.2c-0.6-0.2-1.2-0.3-1.8-0.3c-0.5,0-1,0-1.5,0.1c-0.5,0.1-0.9,0.2-1.3,0.3c-0.3,0.1-0.6,0.1-0.8,0.2
	c-0.2,0.1-0.5,0.1-0.6,0.1c-0.4,0-0.7-0.2-0.9-0.5c-0.1-0.1-0.1-0.3-0.2-0.6l0-0.3c0-0.8,0.6-1.9,1.7-3.2c0.6-0.7,1.3-1.4,2.2-2.2
	c0.9-0.8,1.9-1.6,3-2.5c0.4-0.3,0.8-0.6,1.3-1c0.4-0.3,0.9-0.6,1.4-1c0.1-0.5,0.2-1,0.2-1.5c0.1-0.5,0.1-1,0.2-1.5
	c0.3-2.3,0.8-4.6,1.3-6.9c0.6-2.3,1.2-4.6,2-6.9c-2.3,3.5-4.5,6.7-6.5,9.5c-2.1,2.8-3.9,5.1-5.5,6.8c-1.2,1.2-2.2,2.2-3.1,2.8
	c-0.9,0.7-1.7,1-2.3,1c-1.2,0-1.7-1.3-1.7-3.9c0-1.2,0.2-2.7,0.5-4.4c0.3-1.8,0.7-3.9,1.3-6.4c0-0.1,0-0.1,0.1-0.2
	c0.1-0.1,0.2-0.2,0.3-0.4c0.1-0.1,0.3-0.2,0.5-0.2c0.2,0,0.4,0.1,0.7,0.3c0.1,0.2,0.1,0.4,0.1,0.4c0,0.1,0,0.1,0,0.2
	c0,0,0,0.1,0,0.2l0,0.2c0,0.3-0.1,0.5-0.3,0.6c-1,4-1.5,7-1.5,8.9c0,1.6,0.3,2.5,1,2.5c0.7,0,1.8-0.9,3.3-2.7
	c1.1-1.2,2.4-2.7,3.7-4.4c1.4-1.8,2.8-3.8,4.3-6c1.5-2.2,3.1-4.6,4.7-7.2c1.6-2.6,3.3-5.2,5-7.9c0.4-0.7,0.8-1.4,1.2-2.1
	C126.4,23.5,126.9,22.8,127.3,22.1z M103.8,32.3c0-0.4,0.1-0.8,0.4-1.1l0,0c0.2-0.3,0.4-0.4,0.7-0.4c0.1,0,0.3,0.1,0.4,0.2
	c0.2,0.1,0.3,0.3,0.3,0.5c0.1,0,0.1,0,0.1,0.1c0.1,0.2,0.2,0.4,0.2,0.5c0,0.3-0.1,0.5-0.3,0.7l-0.1,0.1c-0.1,0.1-0.1,0.1-0.1,0.2
	c-0.2,0.3-0.4,0.4-0.8,0.4c-0.5,0-0.8-0.3-0.8-0.9L103.8,32.3L103.8,32.3z M115.8,62.9c0-1.2,0.1-2.5,0.1-3.7c0.1-1.3,0.2-2.6,0.3-4
	c-0.3,0.2-0.5,0.4-0.8,0.6c-0.3,0.2-0.5,0.4-0.7,0.6c-1.1,0.8-2.1,1.6-2.9,2.4c-0.8,0.8-1.5,1.4-2,2.1c-0.9,1-1.3,1.8-1.3,2.1
	c0.1,0,0.1-0.1,0.2-0.2c0.1-0.1,0.2-0.2,0.4-0.3c0.4-0.1,1-0.3,1.5-0.4c0.6-0.1,1.2-0.2,1.8-0.2c0.5,0,1.1,0.1,1.7,0.2
	C114.6,62.3,115.2,62.6,115.8,62.9z M136.9,44.8c1-4.6,1.9-8.8,2.9-12.8c1-4,2.1-7.8,3.1-11.3c-4.5,0.4-8.4,0.7-11.6,1
	c-3.2,0.3-5.8,0.7-7.8,1l-0.1,0c-1,0.6-1.9,1-2.9,1.2c-1,0.2-1.7,0.3-2.3,0.3l-0.3,0c-0.4,0-0.7-0.1-1-0.3c0,0-0.1,0-0.1-0.1l-0.1,0
	c-0.4-0.2-0.5-0.5-0.5-0.7c0-0.3,0.1-0.5,0.4-0.8c0.2-0.2,0.6-0.4,1.4-0.6l0.1-0.1c0.4-0.1,0.8-0.1,1.2-0.2c0.4,0,0.9-0.1,1.4-0.2
	c0.8,0,1.7-0.1,2.5-0.3c0.2,0,0.4-0.1,0.7-0.1c0.2,0,0.5-0.1,0.7-0.1c4-0.6,10.3-1.2,18.7-1.8c0.1-0.2,0.1-0.4,0.2-0.6
	c0-0.2,0.1-0.4,0.1-0.6c0.2-0.4,0.4-0.9,0.5-1.3c0.1-0.4,0.3-0.9,0.4-1.3l0.2-0.5c0.1-0.3,0.2-0.6,0.3-0.9c0.1-0.3,0.2-0.6,0.3-0.9
	c0.6-1.7,1.3-2.9,2.1-3.5c0.4-0.3,0.8-0.4,1.2-0.4c0.4,0,0.8,0.3,1.1,0.8c0.2,0.4,0.3,0.9,0.2,1.7c0,0.2,0,0.4,0,0.6
	c0,0.2,0,0.4-0.1,0.7c-0.1,0.4-0.2,0.8-0.2,1.3c-0.1,0.5-0.2,1-0.4,1.6c-0.1,0.5-0.3,1-0.4,1.5c-0.2,0.5-0.3,1-0.5,1.5
	c4.7-0.3,10.3-0.5,16.8-0.6c6.4-0.1,13.8-0.1,22.1,0c0.3,0,0.5,0.1,0.6,0.2c0.1,0.1,0.2,0.4,0.2,0.6c0,0.2-0.1,0.4-0.2,0.5
	c-0.2,0.2-0.4,0.3-0.6,0.3c-8.4-0.1-15.9-0.1-22.4,0c-6.5,0.1-12.2,0.3-16.9,0.6c-0.8,2.2-1.6,4.5-2.4,6.7c-0.8,2.3-1.7,4.5-2.6,6.8
	c-1.8,4.7-3.2,8-4.1,10.2c-0.2,0.4-0.3,0.7-0.3,0.9l-0.1,0.3c-0.8,3.9-1.4,7.5-1.9,11c-0.5,3.5-0.8,6.7-0.9,9.9l0,0.8
	c-0.1,3.7,0.3,6.5,1.1,8.5c0.6,1.6,1.6,2.3,3,2.4c0.1,0,0.3,0,0.4,0c0.1,0,0.3,0,0.5-0.1c2-0.4,4.8-2.4,8.4-5.8
	c1.9-1.9,3.8-4,5.7-6.2c1.9-2.2,3.8-4.5,5.8-6.9c1.9-2.5,3.7-4.8,5.3-7c1.7-2.2,3.2-4.3,4.6-6.2c0.2-0.3,0.4-0.4,0.7-0.4
	c0.1,0,0.3,0.1,0.5,0.2c0.3,0.2,0.4,0.4,0.4,0.7c0,0.1-0.1,0.3-0.2,0.4c-1.4,2-2.9,4-4.6,6.2c-1.7,2.2-3.5,4.5-5.4,7
	c-2,2.5-3.9,4.8-5.8,7c-1.9,2.2-3.9,4.3-5.8,6.2c-3.7,3.7-6.8,5.8-9.2,6.3c-0.5,0.1-1,0.1-1.4,0.1c-2,0-3.5-1.2-4.3-3.4
	c-0.9-2.4-1.3-5.8-1.2-10c0.1-3.1,0.4-6.4,0.9-9.9c0.5-3.5,1.2-7.2,2-11.2L136.9,44.8z M119.2,71.1c-0.5-1.6-1.1-2.9-1.7-3.9
	c0.1,3.8,0.4,6.9,0.9,9.3c0.5,2.4,0.9,3.9,1.2,4.4l0.1,0.1c0.1,0.2,0.2,0.3,0.2,0.4c0.1,0.1,0.2,0.1,0.2,0.2
	c0.2-0.3,0.2-0.6,0.3-1.1c0-0.2,0.1-0.5,0.1-0.7c0-0.3,0-0.6,0-0.9c0-1.1-0.1-2.3-0.3-3.7C119.9,73.8,119.6,72.4,119.2,71.1
	L119.2,71.1z M140.6,35.8c1-2.5,2-5,2.9-7.6c1-2.5,1.9-5.1,2.8-7.7c-0.6,0.1-1.2,0.1-1.7,0.1c-0.7,2.2-1.3,4.5-2,7.1
	C141.9,30.2,141.2,32.9,140.6,35.8z M146.9,18.8c0.2-0.6,0.4-1.2,0.5-1.8c0.2-0.6,0.3-1.1,0.5-1.6c0.2-0.5,0.3-1,0.4-1.5
	c0.1-0.5,0.2-0.9,0.2-1.3c0-0.2,0.1-0.4,0.1-0.5c0-0.2,0-0.3,0-0.5c0-0.4,0-0.6,0-0.7c-0.5,0.5-1,1.5-1.5,2.8c0,0.1-0.1,0.3-0.1,0.4
	c0,0.1-0.1,0.2-0.2,0.4l-0.5,1.5c-0.1,0.4-0.2,0.8-0.4,1.2c-0.1,0.4-0.3,0.9-0.4,1.4l-0.2,0.5c0.3,0,0.5,0,0.8,0
	C146.3,18.9,146.6,18.8,146.9,18.8L146.9,18.8z"/>
<g>
	<path class="st0" d="M17.2,58.2c-1.8,0-3.4-0.6-4.6-1.8c-1.3-1.2-1.9-2.8-1.9-4.7s0.6-3.4,1.9-4.7c1.3-1.2,2.8-1.8,4.6-1.8
		c1.8,0,3.4,0.6,4.6,1.8c1.3,1.2,1.9,2.8,1.9,4.7s-0.6,3.4-1.9,4.7S19.1,58.2,17.2,58.2z M20,54.7c0.7-0.8,1.1-1.8,1.1-3
		c0-1.3-0.4-2.3-1.1-3s-1.7-1.1-2.8-1.1s-2.1,0.4-2.8,1.1c-0.7,0.8-1.1,1.8-1.1,3s0.4,2.3,1.1,3c0.7,0.8,1.7,1.1,2.8,1.1
		S19.3,55.4,20,54.7z"/>
	<path class="st0" d="M29.4,53.2v-7.8h2.6v7.8c0,0.9,0.2,1.5,0.7,2c0.4,0.4,1.1,0.7,1.9,0.7s1.5-0.2,1.9-0.7c0.4-0.4,0.7-1.1,0.7-2
		v-7.8h2.5v7.8c0,1.6-0.5,2.8-1.5,3.7c-1,0.9-2.2,1.3-3.7,1.3s-2.7-0.4-3.6-1.3C29.9,56,29.4,54.8,29.4,53.2z"/>
	<path class="st0" d="M48.5,53V58h-2.6V45.3h4.7c1.5,0,2.6,0.4,3.4,1.1s1.2,1.6,1.2,2.7c0,0.8-0.2,1.5-0.7,2.2
		c-0.5,0.7-1.2,1.2-2.3,1.4l3.2,5.2h-3l-3-5.1H48.5z M48.5,47.3V51h2.1c0.6,0,1.1-0.2,1.5-0.5s0.5-0.8,0.5-1.4s-0.2-1-0.5-1.4
		s-0.8-0.5-1.5-0.5H48.5z"/>
	<path class="st0" d="M176.5,47.3v-2h9.4v2h-3.4V58H180V47.3H176.5z"/>
	<path class="st0" d="M197.3,58.2c-1.8,0-3.4-0.6-4.6-1.8c-1.3-1.2-1.9-2.8-1.9-4.7s0.6-3.4,1.9-4.7c1.3-1.2,2.8-1.8,4.6-1.8
		c1.8,0,3.4,0.6,4.6,1.8c1.3,1.2,1.9,2.8,1.9,4.7s-0.6,3.4-1.9,4.7S199.2,58.2,197.3,58.2z M200.2,54.7c0.7-0.8,1.1-1.8,1.1-3
		c0-1.3-0.4-2.3-1.1-3s-1.7-1.1-2.8-1.1s-2.1,0.4-2.8,1.1c-0.7,0.8-1.1,1.8-1.1,3s0.4,2.3,1.1,3c0.7,0.8,1.7,1.1,2.8,1.1
		S199.4,55.4,200.2,54.7z"/>
	<path class="st0" d="M224.4,58h-2.6v-4.4l-4.3-8.3h2.9l2.7,6l2.7-6h2.9l-4.3,8.3V58z"/>
	<path class="st0" d="M239.7,58.2c-1.8,0-3.4-0.6-4.6-1.8c-1.3-1.2-1.9-2.8-1.9-4.7s0.6-3.4,1.9-4.7c1.3-1.2,2.8-1.8,4.6-1.8
		c1.8,0,3.4,0.6,4.6,1.8c1.3,1.2,1.9,2.8,1.9,4.7s-0.6,3.4-1.9,4.7S241.6,58.2,239.7,58.2z M242.5,54.7c0.7-0.8,1.1-1.8,1.1-3
		c0-1.3-0.4-2.3-1.1-3s-1.7-1.1-2.8-1.1s-2.1,0.4-2.8,1.1c-0.7,0.8-1.1,1.8-1.1,3s0.4,2.3,1.1,3c0.7,0.8,1.7,1.1,2.8,1.1
		S241.8,55.4,242.5,54.7z"/>
	<path class="st0" d="M251.9,53.2v-7.8h2.6v7.8c0,0.9,0.2,1.5,0.7,2c0.4,0.4,1.1,0.7,1.9,0.7s1.5-0.2,1.9-0.7c0.4-0.4,0.7-1.1,0.7-2
		v-7.8h2.5v7.8c0,1.6-0.5,2.8-1.5,3.7c-1,0.9-2.2,1.3-3.7,1.3s-2.7-0.4-3.6-1.3C252.3,56,251.9,54.8,251.9,53.2z"/>
</g>
</svg>
