<?xml version="1.0" encoding="utf-8"?>
<!-- Generator: Adobe Illustrator 21.1.0, SVG Export Plug-In . SVG Version: 6.00 Build 0)  -->
<svg version="1.1" id="Layer_1" xmlns="http://www.w3.org/2000/svg" xmlns:xlink="http://www.w3.org/1999/xlink" x="0px" y="0px"
	 viewBox="0 0 223 63.2" style="enable-background:new 0 0 223 63.2;" xml:space="preserve">
<style type="text/css">
	.st0{clip-path:url(#SVGID_2_);fill:#B76B4F;}
</style>
<g>
	<defs>
		<rect id="SVGID_1_" y="0" width="223" height="63.2"/>
	</defs>
	<clipPath id="SVGID_2_">
		<use xlink:href="#SVGID_1_"  style="overflow:visible;"/>
	</clipPath>
	<path class="st0" d="M0,22c0-0.9,0.3-2.1,0.9-3.6c-0.2-0.2-0.4-0.3-0.4-0.5c0-0.1-0.1-0.2-0.1-0.3c0-0.4,0.2-0.6,0.5-0.7
		c0.3-0.1,0.7-0.2,1-0.4c0.2-0.4,0.4-0.8,0.6-1.2C2.7,14.9,3,14.5,3.3,14c0.9-1.3,1.7-2.3,2.6-3c0.8-0.7,1.6-1.1,2.2-1.3
		c0.3-0.1,0.5-0.1,0.7-0.1c0.6,0,1.1,0.2,1.4,0.7c0.2,0.2,0.2,0.5,0.2,0.9c0,0.4-0.1,0.9-0.4,1.4c-0.4,0.7-1.1,1.5-2.2,2.4
		c-1.1,0.9-2.7,1.8-4.7,2.8c-0.5,0.9-0.8,1.7-1.1,2.4c-0.2,0.7-0.3,1.3-0.3,1.8v0.5c0.1,0.6,0.6,1,1.3,1.2c0.2,0,0.5,0.1,0.8,0.1
		c0.8,0,1.7-0.2,2.9-0.5c1.4-0.4,2.8-0.9,4.4-1.7c1.6-0.7,3.1-1.5,4.6-2.5c1.5-0.9,2.8-1.9,4.1-2.9c1.2-1,2.2-1.9,2.9-2.9
		c0.2-0.2,0.4-0.3,0.7-0.3c0.3,0,0.4,0,0.5,0.1c0.2,0.2,0.3,0.4,0.3,0.6c0,0.2-0.1,0.3-0.2,0.6c-0.8,1-1.8,2-3.1,3
		c-1.3,1.1-2.7,2.1-4.3,3.1c-1.6,1-3.2,1.8-4.8,2.6c-1.7,0.8-3.2,1.4-4.6,1.7c-0.6,0.2-1.3,0.3-1.8,0.4c-0.6,0.1-1.1,0.1-1.6,0.1
		c-0.2,0-0.4,0-0.5,0c-0.2,0-0.4,0-0.5-0.1c-0.7-0.2-1.3-0.5-1.7-0.9c-0.5-0.4-0.7-1-0.9-1.7C0,22.6,0,22.3,0,22 M4.6,15.1
		c1.1-0.6,2-1.2,2.6-1.8c0.6-0.6,1.1-1.1,1.3-1.5c0.2-0.2,0.2-0.3,0.2-0.5l-0.1-0.1c0,0,0,0.1-0.1,0.1c0,0-0.1,0-0.1,0
		c0,0,0,0-0.1,0c-0.5,0.1-1,0.5-1.7,1c-0.7,0.6-1.4,1.4-2.1,2.5L4.6,15.1z M24,12.9c0.2,0.1,0.2,0.2,0.2,0.4c0.9,4.5,1.9,7.7,3,9.6
		c0.5-1.1,1-2.1,1.5-3.2c0.5-1,1.1-2,1.7-2.8c0.6-0.8,1.2-1.6,1.9-2.2c0.7-0.6,1.4-1,2.2-1.3c0,0,0.1,0,0.1,0c0,0,0.1,0,0.1,0
		c0.4,0,0.7,0.2,0.8,0.6c0,0.1,0,0.1,0,0.1c0,0,0,0,0,0.1c0,0.5-0.2,0.7-0.6,0.9c-0.6,0.2-1.3,0.6-1.9,1.2c-0.6,0.6-1.2,1.3-1.7,2.2
		c-0.5,0.9-1.1,1.8-1.6,2.9s-1,2.1-1.5,3.2c0.7,0.8,1.6,1.3,2.5,1.3c0.2,0,0.4,0,0.5-0.1c0.8-0.2,1.5-0.5,2.3-1.1
		c0.8-0.6,1.6-1.4,2.4-2.3c0.8-0.9,1.6-1.8,2.3-2.9c0.8-1,1.5-2,2.2-2.9c0.5-0.7,1-1.3,1.5-1.9c0.4-0.6,0.9-1.2,1.3-1.7
		c0.2-0.2,0.4-0.3,0.7-0.3c0.2,0,0.3,0.1,0.5,0.2c0.2,0.2,0.3,0.4,0.3,0.6s-0.1,0.4-0.2,0.6c-0.4,0.4-0.8,0.9-1.2,1.5
		c-0.4,0.6-0.9,1.3-1.4,2c-0.7,1-1.5,2-2.3,3.1c-0.8,1.1-1.7,2.1-2.5,3c-0.9,0.9-1.8,1.7-2.7,2.4c-0.9,0.7-1.8,1.1-2.8,1.3
		c-0.4,0.1-0.7,0.1-0.9,0.1c-0.5,0-1.1-0.1-1.6-0.3c-0.5-0.2-1-0.5-1.5-1c-0.8,1.9-1.7,3.6-2.5,5.1c-0.9,1.5-1.8,2.6-2.9,3.2
		c-0.1,0.1-0.2,0.1-0.5,0.1c-0.3,0-0.5-0.1-0.7-0.4c-0.1-0.2-0.1-0.3-0.1-0.5c0-0.3,0.1-0.5,0.4-0.7c0.9-0.5,1.7-1.6,2.6-3.1
		c0.8-1.6,1.7-3.3,2.5-5.1c-0.7-1-1.3-2.4-2-4c-0.6-1.6-1.2-3.7-1.7-6.2c-0.1,0-0.2-0.1-0.3-0.1c-0.1,0-0.2-0.1-0.2-0.2
		c-0.2-0.3-0.3-0.5-0.3-0.7c0-0.2,0.1-0.3,0.2-0.5c0.1-0.2,0.2-0.3,0.3-0.4c0.2-0.1,0.3-0.1,0.4-0.2c0.1,0,0.2-0.1,0.4-0.1
		C23.6,12.5,23.8,12.7,24,12.9 M38.3,62.7c-0.2,0.3-0.4,0.5-0.6,0.5s-0.4-0.2-0.6-0.5c-0.2-0.3-0.3-0.9-0.3-1.7
		c-0.1-0.9-0.1-2-0.2-3.3c0-1.4-0.1-3-0.1-4.8c0-2.3,0.1-4.7,0.2-7.4c0.1-2.6,0.3-5.5,0.6-8.6v-0.2c0-0.2,0-0.3,0.1-0.6
		c0.2-2.2,0.5-4.4,0.9-6.5c0.4-2.1,0.9-4.3,1.4-6.4c1.1-4.3,2.5-7.9,4.2-10.8c0.2-0.3,0.4-0.5,0.7-0.5c0.2,0,0.4,0.1,0.6,0.2
		c0.2,0.2,0.2,0.3,0.2,0.6c0,0.1,0,0.2-0.1,0.5c-3.2,6-5.2,13.2-6,21.7l0.1-0.1c0.4-2.1,0.8-4.1,1.3-6c0.5-2,1-3.9,1.5-5.7
		c1.1-3.7,2.3-6.7,3.7-9.1c2.7-4.1,5.6-6.2,8.8-6.2c1.5,0,2.7,0.5,3.7,1.4c1,0.9,1.5,2.2,1.5,4c0,1.7-0.6,3.6-1.7,5.8
		c-0.6,1.1-1.4,2.3-2.4,3.6c-1,1.3-2.2,2.6-3.6,4c-2.9,2.9-6.6,5.9-11.4,9.2c-0.8,4.4-1.3,8.4-1.7,11.9c-0.4,3.5-0.6,6.5-0.6,9
		l0.1,5.2C38.6,62.2,38.5,62.4,38.3,62.7 M47.3,14.8c-2.5,4.6-4.5,10.8-5.9,18.6c2.1-1.5,3.9-3,5.6-4.3c1.7-1.4,3.1-2.7,4.3-4
		c1.2-1.3,2.3-2.5,3.2-3.7c0.9-1.1,1.6-2.2,2.2-3.3c1.1-2,1.6-3.7,1.6-5.1c0-1.2-0.3-2.1-1-2.8c-0.6-0.6-1.5-0.9-2.5-0.9
		C52.1,9.4,49.6,11.2,47.3,14.8 M89.2,30.3C89,30.8,88.8,31,88.3,31c-0.6,0-0.9-0.3-0.9-0.9c0-2.1,0-3.9,0.1-5.7
		c0.1-1.7,0.2-3.3,0.4-4.6c0.2-1.4,0.3-2.8,0.4-4c0.1-1.3,0.3-2.5,0.5-3.6c0.2-1,0.3-1.7,0.4-2.1c0.1-0.5,0.1-0.8,0.1-0.9V9.1
		c-0.1,0-0.2,0.1-0.3,0.3c-0.1,0.2-0.4,0.6-0.9,1.3c-0.7,0.9-1.6,2-2.6,3.2c-1,1.2-2.2,2.5-3.5,3.7c-1,1-2.2,1.9-3.7,3
		c-1.5,1-3.1,1.9-4.7,2.7c-1.1,0.5-2.3,1-3.4,1.3c-1.1,0.3-2.2,0.5-3.3,0.5L66,25c-0.6,0-1.2-0.2-1.8-0.6c-0.5-0.4-0.9-0.9-1.1-1.4
		c-0.2-0.4-0.2-0.9-0.2-1.5c0-0.6,0.1-1.2,0.2-1.7c0.1-0.5,0.4-1.2,0.7-2c-0.2-0.1-0.3-0.2-0.4-0.4c0-0.1-0.1-0.2-0.1-0.3
		c0-0.3,0.2-0.6,0.5-0.8c0.4-0.1,0.7-0.2,0.9-0.4c0.2-0.3,0.4-0.7,0.6-1.1c0.2-0.4,0.5-0.8,0.8-1.3c0.9-1.3,1.7-2.3,2.6-3
		c0.9-0.7,1.6-1.1,2.2-1.3c0.3-0.1,0.5-0.1,0.7-0.1c0.6,0,1.1,0.3,1.4,0.8c0.2,0.2,0.2,0.5,0.2,0.9c0,0.4-0.1,0.9-0.4,1.4
		c-0.4,0.6-1.1,1.4-2.2,2.3c-1.1,0.9-2.7,1.8-4.7,2.8c-0.5,0.8-0.8,1.6-1,2.2c-0.2,0.6-0.4,1.2-0.4,1.8c0,0.1-0.1,0.2-0.1,0.3v0.3
		c0,0.2,0,0.5,0.1,0.7c0.1,0.3,0.3,0.5,0.5,0.6c0.3,0.2,0.7,0.3,1.1,0.3c0.2,0,0.4,0.1,0.8,0.1c0.9,0,1.8-0.2,2.8-0.5
		c1-0.3,2-0.7,3-1.2c1.6-0.8,3.1-1.6,4.5-2.6c1.4-1,2.6-1.9,3.6-2.8c1.3-1.2,2.4-2.4,3.4-3.6c1-1.2,1.8-2.2,2.5-3.1
		c0.7-0.9,1.3-1.6,1.7-2.1c0.5-0.5,0.9-0.8,1.3-0.8c0.7,0,1,0.7,1,2c0,0.4,0,0.9-0.1,1.5c-0.1,0.6-0.2,1.3-0.3,2.1
		c-0.2,1.1-0.3,2.3-0.5,3.6c-0.2,1.2-0.3,2.6-0.4,4c-0.1,1-0.2,2-0.2,3c-0.1,1-0.2,2.1-0.2,3.3c0.2-0.3,0.3-0.6,0.4-1.1l0.1-0.1
		l0.6-1.7c0-0.2,0.3-0.8,0.9-1.9c0.6-1.1,1.2-2.4,2-3.9c0.8-1.5,1.6-3.1,2.5-4.7c0.9-1.7,1.7-3.1,2.4-4.4c0.4-0.6,0.7-1.1,1-1.6
		c0.3-0.5,0.5-0.8,0.7-1.1c0.7-0.9,1.3-1.4,1.7-1.4c0.4,0,0.6,0.5,0.6,1.6c0,0.2-0.1,0.6-0.2,1c-0.1,0.4-0.3,0.9-0.5,1.6
		c-0.3,1.1-0.6,2.1-0.8,3c-0.2,0.9-0.3,1.8-0.3,2.5v0.5c0,0.2,0,0.3,0.1,0.5c0.1,0.8,0.4,1.4,0.9,1.8c0.5,0.3,0.9,0.4,1.5,0.4
		c0.3,0,0.6,0,0.7-0.1c1-0.1,2.1-0.5,3.5-1.2c1.4-0.7,3.1-1.6,5-2.9c0.2-0.1,0.3-0.2,0.5-0.2c0.3,0,0.5,0.1,0.7,0.4
		c0.1,0.1,0.2,0.3,0.2,0.5c0,0.3-0.1,0.6-0.4,0.7c-2.1,1.4-3.8,2.4-5.3,3.1c-1.5,0.7-2.8,1.1-3.9,1.3c-0.2,0-0.4,0.1-0.5,0.1h-0.5
		c-1,0-1.8-0.2-2.5-0.7c-0.8-0.6-1.3-1.6-1.5-2.9c0-0.2-0.1-0.4-0.1-0.6c0-0.2,0-0.4,0-0.7c0-1.1,0.2-2.5,0.6-4.1
		c-0.7,1.3-1.5,2.7-2.3,4.3c-0.8,1.6-1.6,3.1-2.3,4.5c-0.7,1.4-1.3,2.6-1.8,3.6c-0.5,1-0.8,1.6-0.9,1.7l-0.6,1.7
		c-0.4,1-0.8,1.9-1.1,2.7C89.8,29.3,89.5,29.9,89.2,30.3 M67.5,14.5c0.8-0.5,1.5-0.9,2-1.3c0.5-0.4,1-0.8,1.3-1.2s0.5-0.7,0.7-0.9
		s0.2-0.4,0.2-0.4c-0.1,0-0.6,0.3-1.4,0.8c-0.8,0.5-1.7,1.5-2.7,2.9L67.5,14.5z M148,14.8L148,14.8c0.2-0.2,0.4-0.2,0.6-0.2
		c0.2,0,0.4,0.1,0.6,0.3c0.2,0.1,0.3,0.3,0.3,0.6c0,0.2-0.1,0.4-0.3,0.6c-3.5,3.3-6.4,5.8-8.8,7.3c-2.4,1.6-4.3,2.5-5.8,2.9
		c-0.5,0.1-1,0.2-1.4,0.2c-1,0-1.9-0.3-2.6-0.9c-0.8-0.7-1.3-1.7-1.5-3c-1.8,1.8-3.6,3.4-5.4,4.8c-1.8,1.4-3.4,2.3-5,2.9
		c-0.9,0.4-1.8,0.6-2.8,0.6c-0.7,0-1.2-0.1-1.7-0.3c-0.6-0.3-1.2-0.8-1.7-1.3c-0.5-0.6-0.8-1.4-1.1-2.4c-0.3-0.9-0.4-2.2-0.4-3.9
		c0-1.4,0.1-3.1,0.4-4.9c0.2-1.9,0.6-4,1.2-6.5l0.1-0.2c0-0.2,0.1-0.3,0.3-0.3c0.3-0.2,0.5-0.2,0.6-0.2c0.2,0,0.4,0.1,0.6,0.4
		c0.1,0.1,0.1,0.1,0.1,0.2c0,0.1,0,0.1,0.1,0.2c0,0.1,0.1,0.2,0.1,0.3V12c0,0.2-0.2,0.4-0.3,0.6c-0.5,2.2-0.8,4.1-1.1,5.7
		c-0.2,1.7-0.3,3.1-0.3,4.4c0,0.7,0,1.4,0.1,2c0.1,0.6,0.2,1.1,0.3,1.6c0.3,1.3,0.9,2.1,1.8,2.5c0.3,0.1,0.7,0.2,1.1,0.2
		c0.7,0,1.4-0.2,2.2-0.5c1.6-0.6,3.3-1.6,5.1-3.1c1.8-1.5,3.7-3.2,5.6-5.1l0.2-0.2c0.1-1.3,0.3-2.7,0.7-4.1c0.4-1.4,0.8-2.6,1.4-3.6
		c0.5-1.1,1.1-1.9,1.7-2.5c0.6-0.6,1.1-1,1.6-1.2c0.3-0.1,0.5-0.1,0.6-0.1c0.4,0,0.7,0.1,1.1,0.3c0.4,0.3,0.7,0.8,0.8,1.5
		c0,0.1,0.1,0.3,0.1,0.6c0,0.6-0.2,1.4-0.5,2.3c-0.3,0.9-0.8,1.8-1.6,2.8c-0.6,0.9-1.4,1.7-2.1,2.6c-0.8,0.8-1.5,1.5-2,2.1v0.5
		c0,0.2,0,0.3,0.1,0.5c0.1,0.5,0.2,0.9,0.3,1.3c0.1,0.4,0.3,0.7,0.6,0.9c0.4,0.3,0.9,0.5,1.4,0.5h0.5c0.2,0,0.4,0,0.5-0.1
		c1.4-0.3,3.2-1.2,5.4-2.7C141.8,20.4,144.6,18,148,14.8 M113.7,0.4c0.2-0.3,0.4-0.4,0.7-0.4c0.2,0,0.3,0.1,0.5,0.2
		c0.2,0.1,0.3,0.3,0.3,0.5c0,0,0.1,0.1,0.1,0.1c0.2,0.2,0.2,0.4,0.2,0.5c0,0.3-0.1,0.5-0.3,0.6c0,0.1,0,0.1-0.1,0.2
		c0,0,0,0.1-0.1,0.2c-0.2,0.3-0.4,0.4-0.7,0.4c-0.2,0-0.4-0.1-0.5-0.2c-0.2-0.2-0.3-0.3-0.3-0.6V1.6c0-0.2,0-0.4,0.1-0.6
		C113.5,0.8,113.6,0.6,113.7,0.4 M132.5,13.3c-0.3,0.6-0.6,1.4-0.9,2.3c-0.3,0.9-0.5,1.7-0.7,2.7c0.4-0.5,0.8-0.9,1.3-1.4
		c0.4-0.5,0.8-1,1.2-1.5c0.6-0.9,1.1-1.7,1.3-2.4c0.2-0.7,0.4-1.3,0.4-1.8v-0.3c-0.1-0.2-0.1-0.4-0.2-0.4h-0.1c0,0-0.1,0-0.1,0
		s0,0-0.1,0c-0.3,0.1-0.7,0.4-1.1,0.8C133.3,11.7,132.9,12.4,132.5,13.3 M154.3,28.6c-0.5,0.3-1,0.5-1.5,0.5c-0.5,0-1-0.2-1.4-0.7
		c-0.3-0.3-0.5-0.7-0.6-1.2c-0.1-0.5-0.2-1.1-0.2-1.7V25c0-1.4,0.2-3.1,0.5-5.1c0.4-2,0.8-4,1.5-6c-0.2-0.2-0.2-0.4-0.2-0.6
		c0-0.2,0.1-0.3,0.2-0.4c0.1-0.2,0.1-0.3,0.2-0.3c0,0,0.1-0.1,0.2-0.2c0.1-0.4,0.2-0.7,0.3-1.1c0.1-0.3,0.3-0.6,0.7-0.8
		c0.2-0.1,0.3-0.1,0.3-0.1c0.2,0,0.3,0,0.5,0.1c0.3,0.1,0.5,0.3,0.5,0.7l-0.1,0.3c-0.4,1.1-0.8,2.3-1.1,3.6s-0.6,2.5-0.9,3.7
		c-0.2,1.2-0.4,2.3-0.6,3.4c-0.2,1.1-0.2,2-0.2,2.9v0.4c0.1,1.1,0.2,1.7,0.5,1.9c0,0,0.1,0.1,0.2,0.1c0.2,0,0.4-0.1,0.6-0.2
		c0.6-0.4,1.5-1.2,2.5-2.4c1-1.2,2.3-3,3.8-5.3c2.3-3.6,4.1-6.2,5.4-7.6c1.3-1.5,2.3-2.2,3-2.2c0.2,0,0.4,0.1,0.6,0.2
		c0.3,0.2,0.6,0.6,0.7,1.2s0.2,1.2,0.2,2l-0.2,5.5c0,1.4,0.1,2.6,0.4,3.7c0.2,1.1,0.8,1.8,1.6,2c0.3,0.1,0.6,0.1,0.7,0.1
		c0.7,0,1.5-0.2,2.3-0.7c0.8-0.5,1.7-1.1,2.5-1.9c0.9-0.7,1.7-1.6,2.5-2.5c0.8-0.9,1.6-1.7,2.3-2.5c0.6-0.7,1.2-1.3,1.7-1.9
		c0.5-0.5,0.9-0.9,1.3-1.1c0.2-0.1,0.3-0.1,0.5-0.1c0.3,0,0.5,0.1,0.7,0.3c0.1,0.2,0.2,0.3,0.2,0.5c0,0.3-0.1,0.6-0.4,0.7
		c-0.2,0.2-0.6,0.5-1.1,1c-0.5,0.5-1,1.1-1.6,1.7c-0.7,0.8-1.5,1.7-2.4,2.7c-0.9,0.9-1.8,1.8-2.7,2.6c-1,0.8-1.9,1.5-2.9,2
		c-1,0.5-1.9,0.8-2.8,0.8c-0.4,0-0.8-0.1-1.2-0.2c-0.6-0.2-1.2-0.6-1.6-1.1c-0.4-0.5-0.7-1.1-0.9-1.8c-0.2-0.7-0.4-1.4-0.5-2.3
		c-0.1-0.8-0.1-1.6-0.1-2.5l0.1-3l0.2-2.9c0-0.6-0.1-1-0.2-1.1h-0.1c-0.1,0-0.3,0.2-0.6,0.5c-0.3,0.3-0.7,0.8-1.2,1.5
		c-0.5,0.7-1.2,1.6-2,2.8c-0.8,1.2-1.8,2.6-2.9,4.3c-1.6,2.4-3,4.3-4.1,5.6C156,27.3,155.1,28.2,154.3,28.6 M193.4,11.1
		c-0.4,0-0.6-0.2-0.8-0.5c-1.4,0.1-2.7,0.5-3.8,1.4c-1.1,0.9-1.9,1.8-2.5,2.9c-0.6,1.2-1,2.3-1,3.5v0.5c0,0.2,0,0.3,0.1,0.5
		c0.1,0.5,0.4,1,0.8,1.4s1,0.6,1.7,0.7h0.4c1.3,0,3.1-0.6,5.4-1.7c2.3-1.2,5.1-3.2,8.5-6.1c0.2-0.2,0.3-0.2,0.6-0.2
		c0.2,0,0.4,0.1,0.6,0.3c0.2,0.2,0.2,0.4,0.2,0.6c0,0.2-0.1,0.4-0.3,0.6c-3.5,3-6.5,5.1-9,6.4c-2.5,1.2-4.4,1.9-6,1.9h-0.6
		c-1.2-0.1-2.1-0.4-2.7-1c-0.6-0.6-1.1-1.4-1.3-2.3c0-0.2-0.1-0.4-0.1-0.6c0-0.2,0-0.4,0-0.7c0-1.4,0.4-2.9,1.1-4.4
		c0.8-1.4,1.8-2.6,3.2-3.7c1.4-1,3-1.6,4.9-1.6c0.2,0,0.3,0,0.4,0c0.1,0,0.3,0,0.4,0c0.2,0,0.4,0.1,0.6,0.3c0.3,0.3,0.5,0.6,0.5,0.9
		c0,0.2-0.1,0.5-0.4,0.7c-0.2,0.1-0.3,0.2-0.4,0.2c-0.1,0-0.3,0-0.5,0H193.4z M198.9,22c0-0.9,0.3-2.1,0.9-3.6
		c-0.2-0.2-0.4-0.3-0.4-0.5c0-0.1-0.1-0.2-0.1-0.3c0-0.4,0.2-0.6,0.5-0.7c0.3-0.1,0.7-0.2,1-0.4c0.2-0.4,0.4-0.8,0.6-1.2
		c0.2-0.4,0.5-0.8,0.8-1.2c0.9-1.3,1.7-2.3,2.6-3c0.8-0.7,1.6-1.1,2.2-1.3c0.3-0.1,0.5-0.1,0.7-0.1c0.6,0,1.1,0.2,1.4,0.7
		c0.2,0.2,0.2,0.5,0.2,0.9c0,0.4-0.1,0.9-0.4,1.4c-0.4,0.7-1.1,1.5-2.2,2.4c-1.1,0.9-2.7,1.8-4.7,2.8c-0.5,0.9-0.8,1.7-1.1,2.4
		c-0.2,0.7-0.3,1.3-0.3,1.8v0.5c0.1,0.6,0.6,1,1.3,1.2c0.2,0,0.5,0.1,0.8,0.1c0.8,0,1.7-0.2,2.9-0.5c1.4-0.4,2.8-0.9,4.4-1.7
		c1.6-0.7,3.1-1.5,4.6-2.5c1.5-0.9,2.8-1.9,4.1-2.9c1.2-1,2.2-1.9,2.9-2.9c0.2-0.2,0.4-0.3,0.7-0.3c0.3,0,0.4,0,0.5,0.1
		c0.2,0.2,0.3,0.4,0.3,0.6c0,0.2-0.1,0.3-0.2,0.6c-0.8,1-1.8,2-3.1,3c-1.3,1.1-2.7,2.1-4.3,3.1c-1.6,1-3.2,1.8-4.8,2.6
		c-1.7,0.8-3.2,1.4-4.6,1.7c-0.6,0.2-1.3,0.3-1.8,0.4c-0.6,0.1-1.1,0.1-1.6,0.1c-0.2,0-0.4,0-0.5,0c-0.2,0-0.4,0-0.5-0.1
		c-0.7-0.2-1.3-0.5-1.7-0.9c-0.5-0.4-0.7-1-0.9-1.7C198.9,22.6,198.9,22.3,198.9,22 M203.5,15.1c1.1-0.6,2-1.2,2.6-1.8
		c0.6-0.6,1.1-1.1,1.3-1.5c0.2-0.2,0.2-0.3,0.2-0.5l-0.1-0.1c0,0,0,0.1-0.1,0.1c0,0-0.1,0-0.1,0c0,0,0,0-0.1,0c-0.5,0.1-1,0.5-1.7,1
		c-0.7,0.6-1.4,1.4-2.1,2.5L203.5,15.1z"/>
</g>
</svg>
