<?xml version="1.0" encoding="utf-8"?>
<!-- Generator: Adobe Illustrator 21.1.0, SVG Export Plug-In . SVG Version: 6.00 Build 0)  -->
<svg version="1.1" id="Layer_1" xmlns="http://www.w3.org/2000/svg" xmlns:xlink="http://www.w3.org/1999/xlink" x="0px" y="0px"
	 viewBox="0 0 253.3 82.3" style="enable-background:new 0 0 253.3 82.3;" xml:space="preserve">
<style type="text/css">
	.st0{clip-path:url(#SVGID_2_);fill:#FFFFFF;}
	.st1{clip-path:url(#SVGID_2_);}
	.st2{fill:#FFFFFF;}
	.st3{font-family:'Poppins-SemiBold';}
	.st4{font-size:18.2px;}
	.st5{letter-spacing:3;}
	.st6{letter-spacing:2;}
	.st7{clip-path:url(#SVGID_4_);}
</style>
<g>
	<defs>
		<rect id="SVGID_1_" y="0" width="253.3" height="82.3"/>
	</defs>
	<clipPath id="SVGID_2_">
		<use xlink:href="#SVGID_1_"  style="overflow:visible;"/>
	</clipPath>
	<path class="st0" d="M77.5,37.5L77.5,37.5c0.1,0.1,0.1,0.1,0.1,0.1c0,0,0,0,0,0.1l0,0.2c0,0.4-0.1,0.6-0.3,0.8l-0.1,0
		c-0.2,0.2-0.4,0.3-0.7,0.3c-0.2,0-0.3,0-0.4-0.1c0,0-0.1-0.1-0.1-0.1c-0.3-0.1-0.4-0.3-0.5-0.5c-0.2-0.3-0.3-0.5-0.3-0.8
		c0-0.1,0-0.2,0.1-0.3c-0.8,0.8-1.6,1.5-2.5,2.3c-0.9,0.8-1.7,1.6-2.5,2.4c-0.8,0.8-1.7,1.5-2.5,2.2c-0.8,0.7-1.5,1.3-2.2,1.9
		c-2.2,1.6-3.8,2.4-4.8,2.4l-0.1,0c-0.6,0-1.1-0.3-1.4-0.7C59.1,47.5,59,47,59,46.4c0-0.6,0.1-1.2,0.3-1.8c0.3-0.9,0.7-1.9,1.2-2.9
		c0.5-1.1,1.2-2.2,1.9-3.2c0.6-0.9,1.3-1.7,2-2.5c0.7-0.8,1.5-1.5,2.2-2.1c0.8-0.6,1.6-1.1,2.4-1.4c0.8-0.4,1.6-0.5,2.4-0.5
		c0.3,0,0.5,0,0.8,0.1c0.3,0,0.5,0.1,0.8,0.2c0.9,0.4,1.8,1.1,2.6,2c0.1,0.1,0.1,0.2,0.2,0.2c0.1,0.1,0.1,0.2,0.2,0.3
		c0.5-0.5,1-1,1.5-1.4c0.4-0.4,0.9-0.8,1.2-1.1c0.8-0.8,1.5-1.2,1.9-1.2c0.2,0,0.4,0.1,0.7,0.3c0.1,0.2,0.2,0.4,0.2,0.7
		c0,0.3,0,0.6,0,1c0,0.2,0,0.4,0,0.7s0,0.5,0,0.8c0,1,0,2,0,3c0,1,0,1.9,0,2.9c1.9-1.3,3.8-2.4,5.6-3.3c1.8-1,3.6-1.8,5.3-2.5
		c0.1-0.1,0.3-0.1,0.4-0.1c0.3,0,0.6,0.2,0.7,0.5c0,0.1,0.1,0.2,0,0.3c0,0.3-0.2,0.6-0.5,0.8c-1.8,0.8-3.8,1.7-5.7,2.7
		c-2,1-4,2.3-6,3.6c-0.2,4.8-0.7,9.1-1.4,13c-0.7,3.9-1.7,7.3-2.8,10.3c-1.1,3-2.4,5.6-3.8,7.7c-1.4,2.1-2.8,3.9-4.2,5.2
		c-1.4,1.3-2.7,2.2-4.1,2.8c-1.3,0.6-2.6,0.9-3.8,0.9l-0.5,0c-1.3-0.1-2.4-0.5-3.3-1.3c-0.9-0.8-1.5-1.9-1.9-3.4
		c-0.2-0.8-0.3-1.7-0.3-2.7c0-2.1,0.6-4.5,1.6-7.2c1.1-2.8,2.8-5.9,5.3-9.4c1.8-2.6,3.9-5,6.1-7.2c2.2-2.2,4.5-4.3,6.9-6.1
		c0.7-0.6,1.5-1.2,2.2-1.7c0.7-0.5,1.5-1.1,2.2-1.6c0-1.1,0-2.2,0.1-3.4c0-1.2,0-2.3,0-3.5c0-0.3,0-0.6,0-0.8c0-0.2,0-0.5,0-0.7
		l-0.1,0.2c-0.4,0.3-0.8,0.7-1.3,1.2c-0.5,0.5-1,1-1.5,1.5c0.1,0.2,0.3,0.5,0.4,0.7C77.3,36.9,77.4,37.2,77.5,37.5L77.5,37.5z
		 M68,77.4c1.3-1.3,2.7-2.9,3.9-4.9c1.3-2,2.5-4.4,3.5-7.2c1.1-2.8,2-6,2.7-9.6c0.7-3.6,1.2-7.7,1.5-12.2c-0.6,0.4-1.1,0.8-1.7,1.2
		c-0.6,0.4-1.1,0.8-1.7,1.3c-2.3,1.8-4.6,3.8-6.7,6c-2.1,2.2-4.1,4.5-5.9,7c-2.4,3.3-4.1,6.3-5.1,9c-1,2.6-1.5,4.9-1.6,6.8
		c0,0.8,0.1,1.5,0.2,2.3c0.3,1.1,0.7,1.9,1.4,2.5c0.7,0.6,1.4,0.9,2.3,1l0.4,0c1,0,2-0.2,3.1-0.7C65.6,79.4,66.8,78.5,68,77.4
		 M74.6,35.8c-0.1-0.1-0.1-0.3-0.2-0.3c-0.1-0.1-0.1-0.2-0.2-0.3c-0.6-0.7-1.3-1.2-1.9-1.5c-0.2-0.1-0.4-0.1-0.5-0.2
		c-0.2,0-0.4-0.1-0.5-0.1c-0.6,0-1.3,0.1-1.9,0.5c-0.6,0.3-1.3,0.7-1.9,1.3c-0.7,0.5-1.3,1.2-1.9,1.9c-0.6,0.7-1.2,1.5-1.7,2.2
		c-0.7,1-1.3,2-1.8,3c-0.5,1-0.9,1.9-1.1,2.7c-0.1,0.3-0.1,0.5-0.2,0.8c0,0.2-0.1,0.4-0.1,0.6c0,0.4,0.1,0.6,0.2,0.6
		c0.3,0,0.8-0.2,1.4-0.5c0.6-0.3,1.4-0.9,2.4-1.6c0.7-0.5,1.5-1.2,2.3-1.9c0.8-0.7,1.7-1.5,2.6-2.3s1.8-1.6,2.6-2.5
		C73,37.4,73.9,36.5,74.6,35.8 M117.2,13.1c0.2-0.3,0.4-0.4,0.7-0.4c0.1,0,0.3,0.1,0.4,0.2c0.3,0.2,0.4,0.4,0.4,0.7
		c0,0.1-0.1,0.3-0.2,0.4c-0.8,1.3-1.6,2.6-2.4,4c-2.1,3.8-3.8,7.7-5,11.7c-1.2,4-2.1,7.9-2.7,11.7c0,0.3-0.1,0.6-0.1,0.8
		c0,0.3-0.1,0.5-0.1,0.8c2.4-1.4,5.2-2.7,8.2-4c3.1-1.3,6.5-2.3,10.4-3.1l0.1,0c0.4,0,0.7,0.2,0.8,0.6l0,0.1c0,0.5-0.2,0.8-0.6,0.9
		c-4,0.8-7.6,1.9-10.8,3.2c-3.2,1.3-6,2.8-8.4,4.3c-0.2,1.4-0.3,2.7-0.4,4c-0.1,1.3-0.2,2.6-0.2,3.8c0,0.4,0,0.8,0,1.2
		c0,0.4,0,0.8,0,1.2c0.6,0.6,1.2,1.5,1.7,2.5c0.6,1,1.1,2.3,1.6,3.8c0.5,1.5,0.8,2.9,1.1,4.4c0.2,1.5,0.3,2.8,0.3,4
		c0,0.3,0,0.6,0,0.9c0,0.3-0.1,0.6-0.1,0.8c0,0.7-0.2,1.3-0.5,1.7l0,0.1c-0.3,0.5-0.7,0.8-1.3,0.7l-0.3,0c-0.5-0.1-1-0.6-1.5-1.3
		l-0.1,0c-0.2-0.3-0.5-0.9-0.7-1.9c-0.3-0.9-0.5-2.1-0.7-3.6c-0.2-1.5-0.4-3.1-0.6-5.1c-0.2-1.9-0.3-4-0.3-6.3
		c-0.6-0.6-1.2-0.9-1.8-1.2c-0.6-0.2-1.2-0.3-1.8-0.3c-0.5,0-1,0-1.5,0.1c-0.5,0.1-0.9,0.2-1.3,0.3c-0.3,0.1-0.6,0.1-0.8,0.2
		c-0.2,0.1-0.5,0.1-0.6,0.1c-0.4,0-0.7-0.2-0.9-0.5c-0.1-0.1-0.1-0.3-0.2-0.6l0-0.3c0-0.8,0.6-1.9,1.7-3.2c0.6-0.7,1.3-1.4,2.2-2.2
		c0.9-0.8,1.9-1.6,3-2.5c0.4-0.3,0.8-0.6,1.3-1c0.4-0.3,0.9-0.6,1.4-1c0.1-0.5,0.2-1,0.2-1.5c0.1-0.5,0.1-1,0.2-1.5
		c0.3-2.3,0.8-4.6,1.3-6.9s1.2-4.6,2-6.9c-2.3,3.5-4.5,6.7-6.5,9.5c-2.1,2.8-3.9,5.1-5.5,6.8C96.9,45,95.9,46,95,46.6
		c-0.9,0.7-1.7,1-2.3,1c-1.2,0-1.7-1.3-1.7-3.9c0-1.2,0.2-2.7,0.5-4.4s0.7-3.9,1.3-6.4c0-0.1,0-0.1,0.1-0.2c0.1-0.1,0.2-0.2,0.3-0.4
		c0.1-0.1,0.3-0.2,0.5-0.2c0.2,0,0.4,0.1,0.7,0.3c0.1,0.2,0.1,0.4,0.1,0.4c0,0.1,0,0.1,0,0.2c0,0,0,0.1,0,0.2l0,0.2
		c0,0.3-0.1,0.5-0.3,0.6c-1,4-1.5,7-1.5,8.9c0,1.7,0.3,2.5,1,2.5c0.7,0,1.8-0.9,3.3-2.7c1.1-1.2,2.4-2.7,3.7-4.4
		c1.4-1.8,2.8-3.8,4.3-6c1.5-2.2,3.1-4.6,4.7-7.1c1.6-2.6,3.3-5.2,4.9-7.9c0.4-0.7,0.8-1.4,1.2-2.1
		C116.3,14.5,116.8,13.8,117.2,13.1 M93.7,23.3c0-0.4,0.1-0.8,0.4-1.2c0.2-0.3,0.4-0.4,0.7-0.4c0.1,0,0.3,0.1,0.4,0.2
		c0.2,0.1,0.3,0.3,0.3,0.5c0.1,0,0.1,0,0.1,0.1c0.1,0.2,0.2,0.4,0.2,0.5c0,0.3-0.1,0.5-0.3,0.7l-0.1,0.1c-0.1,0.1-0.1,0.1-0.1,0.2
		c-0.2,0.3-0.4,0.4-0.8,0.4c-0.5,0-0.8-0.3-0.8-0.9L93.7,23.3z M105.7,53.9c0-1.2,0.1-2.5,0.1-3.7c0.1-1.3,0.2-2.6,0.3-4
		c-0.3,0.2-0.5,0.4-0.8,0.6c-0.3,0.2-0.5,0.4-0.7,0.6c-1.1,0.8-2.1,1.6-2.9,2.4c-0.8,0.8-1.5,1.4-2,2.1c-0.9,1-1.3,1.8-1.3,2.1
		c0.1,0,0.1-0.1,0.2-0.2c0.1-0.1,0.2-0.2,0.4-0.3c0.4-0.1,1-0.3,1.5-0.4c0.6-0.1,1.2-0.2,1.8-0.2c0.5,0,1.1,0.1,1.7,0.2
		C104.5,53.3,105.1,53.6,105.7,53.9 M126.8,35.8c1-4.6,1.9-8.8,2.9-12.8c1-4,2.1-7.8,3.1-11.3c-4.5,0.4-8.4,0.7-11.6,1
		c-3.2,0.3-5.8,0.7-7.8,1l-0.1,0c-1,0.6-1.9,1-2.9,1.2c-1,0.2-1.7,0.3-2.3,0.3l-0.3,0c-0.4,0-0.7-0.1-1-0.3c0,0-0.1,0-0.1-0.1
		l-0.1,0c-0.4-0.2-0.5-0.5-0.5-0.7c0-0.3,0.1-0.5,0.4-0.8c0.2-0.2,0.6-0.4,1.4-0.6l0.1-0.1c0.4-0.1,0.8-0.1,1.2-0.2
		c0.4,0,0.9-0.1,1.4-0.2c0.8,0,1.7-0.1,2.5-0.3c0.2,0,0.4-0.1,0.7-0.1s0.5-0.1,0.7-0.1c4-0.6,10.3-1.2,18.7-1.8
		c0.1-0.2,0.1-0.4,0.2-0.6c0-0.2,0.1-0.4,0.1-0.6c0.2-0.4,0.4-0.9,0.5-1.3c0.1-0.4,0.3-0.9,0.4-1.3l0.2-0.5c0.1-0.3,0.2-0.6,0.3-0.9
		c0.1-0.3,0.2-0.6,0.3-0.9c0.6-1.7,1.3-2.9,2.1-3.5c0.4-0.3,0.8-0.4,1.2-0.4c0.4,0,0.8,0.3,1.1,0.8c0.2,0.4,0.3,0.9,0.2,1.7
		c0,0.2,0,0.4,0,0.6c0,0.2,0,0.4-0.1,0.7c-0.1,0.4-0.2,0.8-0.2,1.3c-0.1,0.5-0.2,1-0.4,1.6c-0.1,0.5-0.3,1-0.4,1.5
		c-0.2,0.5-0.3,1-0.5,1.5c4.7-0.3,10.3-0.5,16.8-0.6c6.4-0.1,13.8-0.1,22.1,0c0.3,0,0.5,0.1,0.6,0.2c0.1,0.2,0.2,0.4,0.2,0.6
		c0,0.2-0.1,0.4-0.2,0.5c-0.2,0.2-0.4,0.3-0.6,0.3c-8.4-0.1-15.9-0.1-22.4,0c-6.5,0.1-12.2,0.3-16.9,0.6c-0.8,2.2-1.6,4.5-2.4,6.7
		c-0.8,2.3-1.7,4.5-2.6,6.8c-1.8,4.7-3.2,8-4.1,10.2c-0.2,0.4-0.3,0.7-0.3,0.9l-0.1,0.3c-0.8,3.9-1.4,7.5-1.9,11
		c-0.5,3.5-0.8,6.7-0.9,9.9l0,0.8c-0.1,3.7,0.3,6.5,1.1,8.5c0.6,1.6,1.6,2.3,3,2.4c0.1,0,0.3,0,0.4,0s0.3,0,0.5-0.1
		c2-0.4,4.8-2.4,8.4-5.9c1.9-1.9,3.8-4,5.7-6.2c1.9-2.2,3.8-4.5,5.8-6.9c1.9-2.5,3.7-4.8,5.3-7c1.7-2.2,3.2-4.3,4.6-6.2
		c0.1-0.3,0.4-0.4,0.7-0.4c0.1,0,0.3,0.1,0.5,0.2c0.3,0.2,0.4,0.4,0.4,0.7c0,0.1-0.1,0.3-0.2,0.4c-1.4,2-2.9,4-4.6,6.2
		c-1.7,2.2-3.5,4.5-5.4,7c-2,2.5-3.9,4.8-5.8,7c-1.9,2.2-3.9,4.3-5.8,6.2c-3.7,3.7-6.8,5.8-9.2,6.3c-0.5,0.1-1,0.1-1.4,0.1
		c-2,0-3.5-1.2-4.3-3.4c-0.9-2.4-1.3-5.8-1.2-10c0.1-3.1,0.4-6.4,0.9-9.9c0.5-3.5,1.2-7.2,2-11.2L126.8,35.8z M109.1,62.1
		c-0.5-1.6-1.1-2.9-1.7-3.9c0.1,3.8,0.4,6.9,0.9,9.3c0.5,2.4,0.9,3.9,1.2,4.4l0.1,0.1c0.1,0.2,0.2,0.3,0.2,0.4
		c0.1,0.1,0.2,0.1,0.2,0.2c0.2-0.3,0.3-0.6,0.3-1.1c0-0.2,0.1-0.5,0.1-0.7c0-0.3,0-0.6,0-0.9c0-1.1-0.1-2.3-0.3-3.7
		C109.8,64.8,109.5,63.4,109.1,62.1 M130.5,26.8c1-2.5,2-5,2.9-7.6c1-2.5,1.9-5.1,2.8-7.7c-0.6,0.1-1.2,0.1-1.7,0.1
		c-0.7,2.2-1.3,4.5-2,7.1C131.8,21.2,131.1,23.9,130.5,26.8 M136.8,9.8c0.2-0.6,0.4-1.2,0.5-1.8c0.2-0.6,0.3-1.1,0.5-1.6
		c0.2-0.5,0.3-1,0.4-1.5c0.1-0.5,0.2-0.9,0.2-1.3c0-0.2,0.1-0.4,0.1-0.6c0-0.2,0-0.3,0-0.5c0-0.4,0-0.6,0-0.7
		c-0.5,0.5-1,1.5-1.5,2.8c0,0.1-0.1,0.3-0.1,0.4c0,0.1-0.1,0.2-0.2,0.4l-0.5,1.5c-0.1,0.4-0.2,0.8-0.4,1.2c-0.1,0.4-0.3,0.9-0.4,1.4
		l-0.2,0.5c0.3,0,0.5,0,0.8,0C136.2,9.9,136.5,9.8,136.8,9.8L136.8,9.8z"/>
	<g class="st1">
		<text transform="matrix(1 0 0 1 0 49.0432)" class="st2 st3 st4">O</text>
	</g>
</g>
<text transform="matrix(1 0 0 1 17.9453 49.0432)"><tspan x="0" y="0" class="st2 st3 st4 st5">U</tspan><tspan x="16.1" y="0" class="st2 st3 st4">R</tspan></text>
<text transform="matrix(1 0 0 1 49.9043 49.0432)"><tspan x="0" y="0" class="st2 st3 st4 st6">             </tspan><tspan x="88.2" y="0" class="st2 st3 st4"> </tspan></text>
<text transform="matrix(1 0 0 1 165.8398 49.0432)"><tspan x="0" y="0" class="st2 st3 st4 st5">T</tspan><tspan x="13.8" y="0" class="st2 st3 st4 st5">O</tspan><tspan x="31.8" y="0" class="st2 st3 st4 st5"> Y</tspan><tspan x="54.8" y="0" class="st2 st3 st4">O</tspan></text>
<g>
	<defs>
		<rect id="SVGID_3_" y="0" width="253.3" height="82.3"/>
	</defs>
	<clipPath id="SVGID_4_">
		<use xlink:href="#SVGID_3_"  style="overflow:visible;"/>
	</clipPath>
	<g class="st7">
		<text transform="matrix(1 0 0 1 240.4355 49.0432)" class="st2 st3 st4">U</text>
	</g>
</g>
</svg>
