<?xml version="1.0" encoding="utf-8"?>
<!-- Generator: Adobe Illustrator 21.1.0, SVG Export Plug-In . SVG Version: 6.00 Build 0)  -->
<svg version="1.1" id="Layer_1" xmlns="http://www.w3.org/2000/svg" xmlns:xlink="http://www.w3.org/1999/xlink" x="0px" y="0px"
	 viewBox="0 0 142.5 24.4" style="enable-background:new 0 0 142.5 24.4;" xml:space="preserve">
<style type="text/css">
	.st0{clip-path:url(#SVGID_2_);fill:#B76B4F;}
</style>
<g>
	<defs>
		<rect id="SVGID_1_" y="0" width="142.5" height="24.4"/>
	</defs>
	<clipPath id="SVGID_2_">
		<use xlink:href="#SVGID_1_"  style="overflow:visible;"/>
	</clipPath>
	<path class="st0" d="M16.6,1.7h0.3c1.4,0,2.4,0.4,2.9,1.2c1,1.6-0.1,4.4-0.1,4.5l-4.3,11.2L8.7,4.5c0,0-0.7-1.3-0.2-2.1
		c0.3-0.5,0.9-0.7,1.9-0.7h0.3V0.5H0v1.2l0.5,0.1c0.8,0.1,2,0.2,3.2,2.3c0,0,1,1.9,9.9,20.2l0.1,0.2h0.9l6.6-17.2
		c2.4-5.5,3.6-5.5,5.7-5.5h0.3V0.5H16.6V1.7z"/>
	<path class="st0" d="M38.2,10.9c0.1-6.6,3.8-9.6,6.5-9.6c2.2,0,5.8,2.6,5.9,9.6H38.2z M44.7,0.1c-6.6,0-11.2,5.1-11.2,12.4
		c0,7,4.6,11.9,11.2,11.9c6.1,0,8.9-4.4,9.2-6.5l0-0.3l-1-0.4l-0.1,0.3C52.1,20,49,22,46,22c-0.1,0-0.2,0-0.3,0
		c-4.7-0.2-7.3-3.6-7.5-9.8h16.6v-0.3C54.8,3.2,49.5,0.1,44.7,0.1"/>
	<path class="st0" d="M80.9,3.4c0.1-0.7,0-1.4-0.4-2c-0.6-0.8-1.6-1.2-2.6-1.2c-2.2,0-5.2,1.4-7.1,4V0l-6.8,1.3v1.1l0.3,0
		c2,0.2,2.3,0.7,2.3,2.3v15.1c0,2.5-0.1,2.5-1.8,3l-0.3,0.1V24h8.5v-1.2l-0.3-0.1c-1.8-0.4-1.9-0.4-1.9-3l0-13.3
		c1.2-2.6,3.9-4,4.7-4c-0.1,0.6,0,1.2,0.3,1.8c0.5,0.8,1.4,1.2,2.3,1.2c0.5,0,1-0.1,1.5-0.4C80.3,4.7,80.7,4.1,80.9,3.4"/>
	<path class="st0" d="M104.7,1.7h0.3c1.4,0,2.4,0.4,2.9,1.2c1,1.6-0.1,4.4-0.1,4.5l-4.3,11.2L96.8,4.5c0,0-0.7-1.3-0.2-2.1
		c0.3-0.5,0.9-0.7,1.9-0.7h0.3V0.5H88.1v1.2l0.5,0.1c0.8,0.1,2,0.2,3.2,2.3c0,0,1,1.9,9.9,20.2l0.1,0.2h0.9l6.6-17.2
		c2.4-5.5,3.6-5.5,5.7-5.5h0.3V0.5h-10.6V1.7z"/>
	<path class="st0" d="M125.9,10.9c0.1-6.6,3.8-9.6,6.5-9.6c2.2,0,5.8,2.6,5.9,9.6H125.9z M142.5,11.8c0-8.7-5.2-11.7-10.1-11.7
		c-6.6,0-11.2,5.1-11.2,12.4c0,7,4.6,11.9,11.2,11.9c6.2,0,8.9-4.4,9.2-6.5l0-0.3l-1-0.4l-0.1,0.3c-0.8,2.4-3.9,4.4-6.9,4.4
		c-0.1,0-0.2,0-0.3,0c-4.7-0.2-7.3-3.6-7.5-9.8h16.6V11.8z"/>
</g>
</svg>
